<?xml version="1.0" standalone="no"?>
<!DOCTYPE svg PUBLIC "-//W3C//DTD SVG 20010904//EN"
 "http://www.w3.org/TR/2001/REC-SVG-20010904/DTD/svg10.dtd">
<svg version="1.0" xmlns="http://www.w3.org/2000/svg"
 width="1204.000000pt" height="1204.000000pt" viewBox="0 0 1204.000000 1204.000000"
 preserveAspectRatio="xMidYMid meet">
<metadata>
Created by potrace 1.11, written by Peter Selinger 2001-2013
</metadata>
<g transform="translate(0.000000,1204.000000) scale(0.100000,-0.100000)"
fill="#000000" stroke="none">
<path d="M5665 10089 c4 -35 11 -71 16 -80 6 -12 46 -26 126 -45 l117 -28 53
60 c29 32 53 64 53 70 0 8 -57 22 -205 50 -49 9 -134 26 -148 31 -17 4 -18 0
-12 -58z"/>
<path d="M8204 10081 c20 -39 45 -75 55 -81 11 -5 55 -15 98 -21 43 -5 89 -12
103 -14 14 -3 50 -7 80 -11 30 -3 72 -9 92 -14 46 -10 48 -7 81 93 l26 77 -27
0 c-15 1 -49 3 -77 5 -98 7 -211 16 -265 20 -30 3 -88 7 -128 11 l-73 6 35
-71z"/>
<path d="M5570 10106 c-25 -17 -97 -67 -160 -110 -63 -44 -117 -81 -119 -82
-4 -3 34 -67 59 -101 l17 -22 127 91 c72 51 132 101 137 114 6 19 -5 133 -14
140 -1 1 -22 -13 -47 -30z"/>
<path d="M8080 10098 c-25 -23 -106 -99 -180 -169 -74 -70 -154 -143 -177
-164 -23 -21 -40 -41 -38 -46 8 -12 116 -69 132 -69 7 0 65 46 130 102 65 57
131 114 147 128 87 74 106 94 106 113 0 22 -32 90 -58 124 l-17 22 -45 -41z"/>
<path d="M8746 10010 c-14 -39 -26 -79 -26 -89 0 -24 167 -256 183 -255 15 1
137 92 137 102 0 7 -208 253 -249 295 -17 18 -19 16 -45 -53z"/>
<path d="M6029 9998 c-77 -93 -79 -65 22 -318 50 -124 94 -229 100 -234 5 -6
32 -9 61 -7 29 1 68 3 86 3 17 0 32 2 32 4 0 3 -84 199 -119 279 -10 22 -45
102 -77 178 -32 75 -61 137 -64 137 -3 0 -22 -19 -41 -42z"/>
<path d="M5585 9900 c-38 -27 -98 -69 -132 -92 -34 -24 -64 -52 -67 -63 -5
-19 113 -435 124 -435 3 0 44 57 90 128 46 70 133 201 192 291 60 90 107 166
104 168 -9 9 -183 52 -211 52 -20 0 -54 -16 -100 -49z"/>
<path d="M8272 9934 c3 -11 27 -77 53 -149 25 -71 63 -178 83 -237 20 -60 39
-108 42 -108 3 0 11 12 18 28 40 85 192 422 192 426 0 2 -21 7 -47 11 -50 7
-56 7 -167 25 -38 6 -94 13 -124 16 -50 6 -54 4 -50 -12z"/>
<path d="M8150 9877 c-19 -18 -69 -61 -110 -97 -41 -36 -80 -69 -86 -75 -6 -5
-30 -27 -54 -49 l-42 -38 23 -22 c13 -11 49 -41 79 -66 82 -68 101 -84 117
-99 8 -7 17 -11 20 -7 5 5 54 224 69 310 3 17 12 60 20 95 8 36 11 68 7 72 -5
5 -24 -6 -43 -24z"/>
<path d="M8236 9879 c-6 -16 -62 -286 -71 -339 -3 -19 -10 -51 -15 -70 -20
-73 -26 -70 131 -70 109 0 140 3 136 13 -2 6 -21 59 -42 117 -87 244 -127 355
-131 359 -2 2 -6 -2 -8 -10z"/>
<path d="M5238 9861 c-12 -17 -110 -131 -134 -155 -15 -16 -147 -168 -164
-190 -13 -17 -10 -22 35 -62 28 -24 53 -44 56 -44 5 0 141 158 247 286 23 29
42 60 42 71 0 18 -54 113 -64 113 -3 0 -11 -8 -18 -19z"/>
<path d="M8601 9668 c-111 -243 -105 -228 -94 -228 7 0 342 186 351 195 4 3
-157 235 -162 235 -2 0 -44 -91 -95 -202z"/>
<path d="M5936 9829 c-7 -21 -37 -140 -43 -169 -2 -14 -16 -70 -30 -125 -13
-55 -27 -109 -29 -120 -2 -11 -10 -44 -17 -72 -8 -29 -11 -53 -8 -53 17 0 295
128 298 137 3 9 -152 401 -163 412 -2 2 -6 -2 -8 -10z"/>
<path d="M5707 9532 c-92 -139 -167 -253 -167 -255 0 -1 48 -2 106 -2 85 0
109 3 115 15 13 22 120 471 116 483 -2 6 -78 -103 -170 -241z"/>
<path d="M9010 9693 c-95 -73 -93 -70 -87 -122 4 -25 9 -57 12 -71 3 -14 10
-52 15 -85 16 -93 20 -118 27 -150 4 -16 7 -39 9 -50 1 -11 13 -80 28 -153 14
-72 26 -135 26 -138 0 -3 19 -3 43 0 23 3 62 9 87 12 25 3 47 8 49 10 3 2 0
30 -7 62 -13 67 -85 416 -107 517 -8 39 -18 81 -21 95 -3 14 -8 42 -11 63 -3
21 -8 39 -12 41 -3 2 -26 -12 -51 -31z"/>
<path d="M7549 9482 c-56 -114 -137 -281 -181 -372 -44 -91 -84 -173 -89 -183
-9 -16 -3 -17 72 -15 64 1 86 6 97 19 8 9 91 166 184 348 l168 330 -40 21
c-23 12 -57 30 -76 40 l-34 20 -101 -208z"/>
<path d="M5299 9663 c-2 -6 -24 -33 -49 -60 -74 -80 -132 -152 -222 -278 -79
-111 -225 -335 -235 -361 -3 -9 314 -234 330 -234 4 0 11 31 33 143 2 10 20
100 40 200 20 100 38 193 41 207 2 14 20 103 39 198 19 96 33 179 31 185 -3 9
-5 9 -8 0z"/>
<path d="M5346 9628 c-3 -13 -10 -45 -16 -73 -6 -27 -13 -61 -15 -75 -3 -14
-12 -59 -20 -100 -19 -94 -22 -109 -29 -151 -3 -19 -19 -99 -36 -179 -17 -80
-33 -161 -36 -180 -3 -19 -8 -38 -11 -42 -2 -5 0 -8 6 -8 6 0 32 34 58 75 27
42 85 133 130 202 46 70 86 142 89 161 5 26 -5 71 -40 181 -25 80 -49 161 -52
179 -8 37 -22 42 -28 10z"/>
<path d="M7804 9538 c-11 -24 -77 -155 -147 -293 -70 -137 -127 -255 -127
-262 0 -8 21 3 49 24 27 21 59 46 72 55 13 9 115 85 227 168 l203 150 -120
100 c-66 55 -124 100 -129 100 -4 0 -17 -19 -28 -42z"/>
<path d="M8775 9539 c-22 -12 -87 -48 -144 -80 -57 -33 -107 -59 -112 -59 -25
0 -14 -31 41 -116 35 -52 66 -94 71 -94 4 0 14 12 21 28 32 63 151 288 158
297 12 18 20 45 12 45 -4 0 -25 -10 -47 -21z"/>
<path d="M8837 9487 c-150 -282 -178 -338 -172 -347 3 -5 10 -10 14 -10 5 0
77 -43 160 -95 84 -52 154 -95 155 -95 3 0 -46 287 -69 400 -3 14 -12 66 -21
115 -8 50 -18 93 -22 97 -4 4 -24 -25 -45 -65z"/>
<path d="M4832 9363 c-173 -267 -202 -314 -202 -321 0 -8 118 -67 124 -61 5 6
208 318 234 360 l22 36 -49 42 c-27 22 -53 41 -58 41 -5 0 -37 -44 -71 -97z"/>
<path d="M6290 9403 c-8 -1 -40 -4 -70 -5 -51 -3 -55 -5 -54 -28 1 -31 14
-156 19 -190 2 -14 6 -55 10 -91 8 -87 14 -121 26 -135 10 -12 36 -18 123 -30
l49 -6 -7 64 c-4 36 -9 87 -12 114 -2 27 -6 67 -9 89 -2 22 -7 72 -11 110 -4
39 -8 77 -10 85 -1 8 -3 18 -3 22 -1 6 -17 7 -51 1z"/>
<path d="M6040 9347 c-14 -6 -47 -21 -75 -33 -27 -12 -76 -34 -107 -48 -32
-13 -58 -31 -59 -38 -5 -65 3 -238 11 -238 6 0 82 102 174 234 16 22 42 60 59
83 34 48 33 55 -3 40z"/>
<path d="M5967 9135 c-81 -113 -147 -215 -147 -225 0 -18 309 -555 315 -548
21 22 37 563 22 732 -10 120 -29 246 -37 246 -3 0 -72 -92 -153 -205z"/>
<path d="M7840 9155 c-304 -224 -310 -229 -306 -232 6 -7 271 -13 295 -8 47
11 72 43 115 147 24 57 57 131 74 165 34 66 36 73 25 73 -5 0 -96 -65 -203
-145z"/>
<path d="M8649 9098 c-2 -3 -4 -21 -13 -93 -3 -27 -8 -66 -11 -85 -6 -53 -15
-129 -20 -185 -3 -27 -9 -84 -15 -125 -5 -41 -12 -100 -15 -130 -3 -30 -8 -66
-10 -80 -2 -14 -7 -52 -10 -85 -6 -66 -15 -137 -20 -175 -2 -14 -7 -56 -11
-95 -3 -38 -8 -77 -9 -85 -10 -58 -14 -163 -6 -150 5 8 77 177 161 375 83 198
182 432 220 520 37 88 70 169 74 180 5 18 -15 34 -146 115 -158 99 -167 104
-169 98z"/>
<path d="M4565 8934 c-19 -42 -35 -78 -35 -80 0 -1 -13 -31 -29 -66 -75 -164
-342 -780 -339 -782 22 -16 133 -55 138 -49 4 4 35 73 70 153 34 80 95 219
135 310 184 418 228 521 224 524 -2 2 -32 18 -67 35 l-62 31 -35 -76z"/>
<path d="M6215 8900 c-3 -5 -7 -48 -10 -96 -3 -49 -7 -125 -10 -169 -2 -44 -7
-139 -11 -211 l-6 -130 88 -17 c48 -9 89 -15 91 -13 2 2 6 37 8 77 3 41 7 110
9 154 13 195 16 361 8 373 -10 14 -160 43 -167 32z"/>
<path d="M9170 8898 c-25 -4 -62 -10 -84 -13 -21 -2 -40 -6 -41 -7 -2 -2 -6
-46 -10 -98 -3 -52 -8 -113 -9 -135 -2 -22 -7 -85 -11 -140 -3 -55 -8 -122
-10 -150 -3 -27 -7 -79 -10 -115 -2 -36 -7 -99 -10 -140 -3 -41 -7 -95 -10
-120 -14 -145 -16 -256 -3 -271 12 -14 51 -26 146 -44 31 -6 32 -5 33 27 1 18
2 44 4 58 1 14 5 84 9 155 4 72 9 148 11 170 5 52 15 210 20 305 3 41 7 109 9
150 3 41 8 116 11 165 3 50 8 115 11 146 3 32 2 59 -3 61 -4 3 -28 1 -53 -4z"/>
<path d="M4794 8863 c3 -21 8 -49 11 -63 3 -14 14 -74 24 -135 11 -60 30 -164
41 -230 12 -66 24 -133 27 -150 10 -63 13 -60 123 188 77 175 90 211 79 221
-21 20 -297 206 -305 206 -4 0 -4 -17 0 -37z"/>
<path d="M7310 8872 c-53 -4 -57 -7 -64 -52 -3 -19 -14 -79 -26 -134 -11 -54
-22 -108 -24 -120 -15 -80 -57 -295 -61 -316 -11 -51 -57 -286 -61 -315 -3
-16 -9 -46 -14 -65 -5 -19 -12 -54 -15 -77 -3 -23 -12 -65 -19 -93 -16 -60
-11 -65 68 -69 27 -2 57 -4 67 -6 10 -2 20 3 23 13 4 13 117 571 142 702 3 14
21 104 40 200 20 96 38 186 40 200 2 14 9 47 15 73 6 26 9 50 7 52 -6 7 -70
10 -118 7z"/>
<path d="M7537 8872 l-59 -3 6 -37 c3 -20 10 -75 16 -122 15 -123 18 -151 24
-190 8 -54 17 -122 21 -160 2 -19 7 -53 9 -75 3 -22 8 -64 12 -93 3 -29 7 -61
9 -70 1 -9 6 -42 10 -72 3 -30 8 -66 10 -80 2 -14 9 -69 16 -123 6 -53 15 -99
18 -102 6 -3 37 130 57 242 3 15 21 107 40 203 20 96 38 189 40 205 3 17 12
58 20 93 7 34 16 77 19 95 3 17 13 66 21 107 35 168 37 180 28 181 -46 2 -272
3 -317 1z"/>
<path d="M4655 8668 c-48 -112 -98 -225 -111 -253 -47 -104 -171 -391 -178
-412 -4 -13 -5 -23 -2 -23 2 0 40 16 83 36 158 73 343 154 368 160 15 4 33 17
41 30 16 24 16 33 -10 154 -9 42 -18 89 -20 105 -3 27 -17 105 -31 175 -12 62
-37 206 -38 218 -1 33 -21 -4 -102 -190z"/>
<path d="M8969 8793 c-11 -27 -26 -61 -34 -78 -16 -34 -7 -14 -246 -580 -100
-236 -185 -441 -190 -454 l-9 -23 67 6 c38 4 86 9 108 11 22 3 58 7 80 9 188
19 175 15 176 50 1 17 2 45 4 61 1 17 5 75 9 130 4 55 9 123 12 150 2 28 6 84
9 125 2 41 7 100 9 130 3 30 7 96 11 145 3 50 8 110 10 135 12 139 16 230 10
230 -3 0 -15 -21 -26 -47z"/>
<path d="M5815 8588 c4 -123 8 -247 8 -277 1 -29 5 -53 10 -53 10 0 129 14
147 17 8 1 43 6 78 10 34 4 62 9 62 12 0 6 -43 82 -135 238 -45 77 -92 156
-103 175 -49 88 -58 100 -66 100 -4 0 -5 -99 -1 -222z"/>
<path d="M7439 8720 c-1 -11 -2 -23 -3 -27 -1 -5 -5 -24 -9 -43 -4 -19 -10
-46 -13 -60 -3 -14 -7 -38 -10 -55 -5 -25 -31 -159 -50 -246 -2 -13 -16 -80
-29 -149 -13 -69 -35 -179 -49 -245 -14 -66 -28 -136 -31 -155 -3 -19 -10 -52
-14 -72 -5 -20 -6 -39 -4 -42 3 -3 44 -3 92 0 47 2 124 6 170 8 46 2 88 9 94
15 8 8 7 43 -2 127 -7 64 -14 124 -16 134 -2 9 -6 41 -10 71 -4 30 -8 63 -10
74 -1 11 -6 47 -10 80 -3 33 -8 71 -10 85 -2 14 -7 52 -11 85 -3 33 -8 67 -9
75 -2 9 -6 43 -10 75 -4 33 -9 69 -11 80 -2 11 -7 43 -9 70 -3 28 -7 64 -10
80 -2 17 -4 36 -4 43 -1 20 -21 14 -22 -8z"/>
<path d="M6067 8249 c-27 -4 -70 -10 -95 -13 -108 -14 -132 -19 -132 -26 0
-27 175 -471 186 -471 9 0 37 119 49 210 3 25 8 48 10 51 2 4 7 21 10 38 3 18
7 44 10 60 13 76 25 134 30 142 8 13 -17 17 -68 9z"/>
<path d="M6174 8249 c-3 -5 -21 -94 -40 -197 -19 -103 -36 -194 -39 -202 -2
-8 -6 -31 -9 -50 -7 -44 -15 -87 -22 -122 l-6 -28 64 -1 c35 -1 77 -3 95 -5
28 -3 32 0 37 24 10 49 56 296 61 332 3 19 14 76 24 125 l18 90 -26 7 c-92 25
-152 35 -157 27z"/>
<path d="M4830 8147 c-14 -6 -56 -25 -95 -43 -38 -17 -126 -57 -195 -87 -69
-31 -144 -64 -167 -74 l-41 -19 113 -318 c62 -175 115 -320 118 -322 2 -3 27
62 55 143 27 81 95 280 149 441 55 160 97 292 94 291 -3 0 -17 -5 -31 -12z"/>
<path d="M5818 8134 c-4 -5 -18 -63 -32 -129 -14 -66 -50 -234 -81 -374 -31
-140 -54 -260 -53 -266 2 -7 83 51 180 129 140 111 177 145 174 161 -2 11 -41
115 -86 230 -45 116 -85 221 -89 235 -4 13 -10 20 -13 14z"/>
<path d="M4139 7957 c0 -6 -2 -19 -4 -27 -3 -16 -209 -818 -275 -1070 -21 -80
-36 -147 -34 -149 8 -9 139 -29 145 -23 4 4 34 117 68 252 81 324 238 937 245
955 6 17 3 19 -78 50 -47 18 -66 21 -67 12z"/>
<path d="M4305 7829 c-2 -8 -18 -66 -34 -129 -16 -63 -57 -223 -91 -355 -101
-394 -151 -598 -146 -602 2 -2 114 107 249 242 195 195 245 250 242 268 -4 27
-10 45 -73 222 -28 77 -67 187 -87 245 -40 111 -51 132 -60 109z"/>
<path d="M8827 7654 c-1 -1 -36 -5 -77 -8 -41 -4 -91 -9 -110 -11 -127 -13
-155 -17 -157 -19 -2 -2 10 -92 22 -176 3 -19 8 -55 11 -80 7 -54 9 -73 24
-170 6 -41 13 -88 15 -105 3 -31 13 -101 21 -146 2 -15 6 -44 9 -65 3 -22 7
-52 9 -69 2 -16 7 -52 11 -80 3 -27 8 -61 10 -75 3 -14 8 -43 11 -65 6 -40 11
-52 18 -44 2 3 86 350 101 419 4 19 41 177 60 255 22 92 94 397 100 423 5 21
3 23 -35 20 -22 -1 -42 -3 -43 -4z"/>
<path d="M8945 7640 c-3 -11 -8 -31 -11 -46 -3 -14 -16 -71 -30 -127 -14 -56
-27 -113 -30 -127 -3 -14 -12 -52 -21 -85 -8 -33 -17 -69 -19 -80 -7 -36 -12
-57 -64 -275 -28 -118 -53 -226 -56 -239 -3 -13 -12 -51 -20 -85 -42 -170 -43
-165 41 -191 54 -17 72 -20 77 -10 4 7 28 91 53 186 70 269 119 458 170 649
26 96 60 226 76 288 17 63 28 116 25 119 -4 4 -161 42 -178 43 -4 0 -9 -9 -13
-20z"/>
<path d="M6064 7610 c-15 -6 -35 -57 -94 -241 -40 -129 -90 -286 -111 -349
-61 -189 -128 -403 -135 -432 -5 -22 -2 -29 12 -34 11 -4 45 -18 77 -32 50
-22 60 -23 71 -11 25 27 131 309 194 519 51 165 163 569 159 571 -1 0 -29 2
-62 5 -33 2 -67 6 -75 8 -9 2 -25 0 -36 -4z"/>
<path d="M7006 7547 c-7 -52 -12 -107 -20 -222 -13 -165 -17 -224 -22 -270 -5
-51 -9 -101 -19 -235 -4 -41 -8 -93 -10 -115 -5 -48 -16 -178 -19 -220 -2 -16
-1 -33 1 -37 5 -11 137 23 155 41 12 12 18 42 23 111 3 52 8 106 10 120 2 14
7 63 10 110 3 47 8 99 10 115 2 17 7 66 10 110 6 84 14 167 20 225 5 43 17
210 19 264 1 43 5 42 -100 50 l-62 5 -6 -52z"/>
<path d="M7574 7572 c-94 -122 -394 -524 -394 -528 0 -3 82 -120 181 -260 115
-162 185 -251 189 -243 4 6 9 41 10 78 1 36 3 91 5 121 2 30 7 102 9 160 11
212 17 317 21 385 13 202 16 315 8 314 -4 0 -17 -12 -29 -27z"/>
<path d="M7254 7582 c-36 -7 -39 -13 -49 -138 -3 -43 -8 -97 -10 -119 -19
-196 -16 -224 17 -172 9 12 82 110 163 217 81 107 149 199 151 205 4 10 -223
15 -272 7z"/>
<path d="M5855 7464 c-72 -58 -149 -120 -173 -137 l-43 -32 6 -99 c4 -54 8
-106 10 -115 1 -9 6 -47 9 -86 7 -76 13 -121 22 -187 3 -24 7 -58 9 -76 2 -31
11 -50 19 -41 3 4 130 400 233 727 24 79 43 145 41 147 -2 2 -62 -44 -133
-101z"/>
<path d="M8440 7505 c0 -6 -140 -511 -236 -847 -35 -125 -64 -229 -64 -232 0
-4 106 -6 235 -6 l235 0 -5 38 c-3 20 -7 51 -10 67 -7 46 -40 279 -50 350 -7
57 -18 130 -20 145 -2 9 -6 43 -10 75 -4 33 -9 69 -11 80 -5 26 -16 105 -19
130 -2 18 -12 91 -20 140 -2 11 -4 30 -4 43 -1 12 -5 22 -11 22 -5 0 -10 -2
-10 -5z"/>
<path d="M5555 7098 c-21 -51 -46 -111 -56 -133 -10 -22 -41 -96 -69 -165
-151 -364 -174 -418 -190 -452 -10 -21 -15 -38 -12 -38 21 0 424 247 435 266
8 13 4 95 -8 174 -2 14 -6 50 -9 80 -3 30 -8 71 -10 90 -3 19 -7 62 -11 95 -3
33 -8 69 -10 80 -2 11 -4 37 -4 58 -1 20 -5 37 -10 37 -4 0 -25 -42 -46 -92z"/>
<path d="M4496 7152 c-3 -9 -108 -119 -234 -244 -125 -125 -232 -240 -238
-255 -12 -32 -5 -75 50 -335 19 -91 37 -178 40 -192 3 -14 12 -63 22 -108 9
-46 18 -90 19 -98 2 -8 4 -22 4 -30 2 -29 18 7 40 90 13 47 34 123 47 170 13
47 44 157 68 245 24 88 67 244 95 347 29 103 54 195 56 205 2 10 15 59 29 108
14 50 26 96 26 103 0 18 -18 15 -24 -6z"/>
<path d="M7163 6958 c0 -7 -4 -49 -7 -93 -4 -44 -9 -102 -11 -130 -6 -85 -16
-199 -20 -222 -4 -27 -23 -24 218 -25 93 0 170 2 172 4 3 2 -60 94 -138 204
-78 110 -153 216 -167 237 -25 37 -46 48 -47 25z"/>
<path d="M163 6949 c-46 -6 -69 -22 -107 -77 -44 -66 -44 -67 74 -63 58 1 110
6 117 9 13 8 103 125 99 130 -6 5 -143 7 -183 1z"/>
<path d="M389 6943 c-9 -10 -36 -47 -61 -83 l-46 -66 112 -76 c61 -42 143 -99
181 -125 207 -145 494 -342 520 -358 37 -23 55 -43 -208 228 -122 126 -281
289 -353 363 -122 126 -131 134 -145 117z"/>
<path d="M517 6888 c23 -24 95 -98 160 -164 496 -511 618 -634 625 -634 4 0
34 19 67 43 32 23 108 76 169 117 61 41 111 78 112 81 0 3 -177 95 -392 203
-216 108 -481 242 -588 297 l-195 100 42 -43z"/>
<path d="M4 6753 c2 -10 17 -72 32 -138 30 -132 50 -175 40 -85 -14 128 -29
216 -38 228 -16 19 -40 15 -34 -5z"/>
<path d="M86 6743 c1 -16 2 -36 3 -46 1 -20 44 -67 61 -67 7 0 8 17 4 53 -9
67 -19 87 -48 87 -19 0 -22 -5 -20 -27z"/>
<path d="M185 6759 c-4 -6 -4 -25 -1 -42 3 -18 8 -50 12 -72 3 -22 14 -87 24
-145 l18 -105 1 188 1 187 -24 0 c-14 0 -28 -5 -31 -11z"/>
<path d="M904 6758 c-3 -4 35 -27 83 -49 48 -23 91 -44 95 -46 10 -5 54 85 45
93 -9 10 -218 11 -223 2z"/>
<path d="M282 6640 l3 -112 96 -92 c52 -50 151 -143 220 -207 68 -63 153 -142
187 -175 35 -32 72 -62 82 -66 16 -6 302 63 367 89 20 7 6 20 -130 111 -147
100 -229 156 -597 407 -96 66 -188 128 -204 138 l-28 19 4 -112z"/>
<path d="M1148 6696 l-27 -54 77 -35 c42 -19 78 -32 80 -27 2 5 -21 45 -51 89
l-53 80 -26 -53z"/>
<path d="M3817 6663 c-3 -5 -8 -28 -12 -53 -4 -25 -9 -54 -11 -65 -4 -25 -32
-210 -45 -295 -5 -36 -12 -78 -15 -95 -7 -45 -38 -239 -59 -375 -14 -88 -27
-169 -30 -192 -3 -16 -7 -43 -10 -60 -13 -76 -25 -145 -31 -173 -3 -16 -8 -72
-10 -123 -4 -105 12 -164 66 -238 16 -23 30 -47 30 -53 0 -18 26 -12 27 7 1 9
9 67 18 127 9 61 18 128 21 150 3 22 9 65 14 95 5 30 12 75 15 100 7 50 11 78
25 160 5 30 12 78 15 105 8 69 14 111 25 175 6 30 12 72 15 94 5 41 14 105 20
146 16 104 38 251 41 280 3 19 7 46 10 60 9 50 18 126 18 165 1 39 1 39 -44
47 -25 4 -55 10 -67 13 -12 3 -24 2 -26 -2z"/>
<path d="M1620 6578 c-113 -33 -208 -63 -212 -66 -5 -5 223 -131 271 -150 7
-2 45 62 120 201 23 42 39 77 34 76 -4 0 -100 -28 -213 -61z"/>
<path d="M1889 6630 c-15 -8 -94 -141 -143 -237 -15 -30 -15 -32 2 -28 9 2 96
20 192 40 96 20 182 38 190 40 8 2 69 15 136 28 156 33 174 38 174 46 0 4 -35
14 -77 24 -43 9 -144 32 -224 51 -178 42 -229 49 -250 36z"/>
<path d="M5681 6492 c-10 -20 -54 -104 -96 -187 -42 -82 -151 -296 -242 -475
-91 -179 -170 -331 -176 -337 -7 -10 0 -17 24 -27 19 -8 55 -23 81 -35 l47
-20 59 102 c134 229 201 353 337 627 131 264 155 313 152 317 -2 1 -40 18 -85
37 l-82 35 -19 -37z"/>
<path d="M3988 6505 c-5 -10 -12 -46 -24 -130 -3 -22 -9 -65 -14 -95 -5 -30
-12 -75 -15 -100 -6 -47 -15 -114 -20 -140 -2 -8 -6 -37 -9 -65 -4 -27 -11
-75 -16 -105 -11 -61 -16 -99 -36 -245 -3 -27 -8 -59 -10 -70 -2 -11 -7 -40
-10 -65 -3 -25 -7 -56 -9 -70 -3 -14 -16 -104 -30 -199 -15 -96 -29 -180 -32
-185 -3 -6 1 -4 10 4 8 8 96 175 195 370 l179 356 -73 364 c-82 406 -78 388
-86 375z"/>
<path d="M2489 6486 c-3 -3 -20 -8 -39 -11 -19 -3 -42 -8 -50 -10 -8 -2 -26
-6 -40 -9 -27 -5 -216 -45 -240 -51 -66 -16 -261 -57 -284 -61 -31 -4 -43 -11
-34 -20 5 -4 574 -147 622 -156 17 -3 24 17 62 160 38 145 40 162 25 162 -10
0 -20 -2 -22 -4z"/>
<path d="M5570 6458 c-132 -73 -361 -211 -367 -221 -3 -6 -8 -33 -9 -61 -1
-28 -5 -100 -9 -161 -3 -60 -8 -148 -11 -195 -2 -47 -7 -121 -9 -165 -3 -49
-2 -76 4 -70 10 11 51 90 256 490 71 138 147 287 171 333 23 45 39 82 35 81
-3 0 -31 -14 -61 -31z"/>
<path d="M2521 6323 c-32 -120 -36 -140 -32 -171 1 -13 321 -255 328 -249 4 5
-26 71 -144 317 -44 91 -86 180 -94 198 -7 17 -16 32 -19 32 -3 0 -21 -57 -39
-127z"/>
<path d="M2622 6408 c12 -24 49 -101 83 -173 195 -410 176 -375 200 -362 43
23 315 202 315 207 0 5 -188 122 -484 302 -61 37 -116 68 -123 68 -7 0 -4 -16
9 -42z"/>
<path d="M7125 6440 c-1 -3 -1 -13 0 -22 2 -9 6 -63 10 -121 3 -57 8 -121 10
-143 2 -21 7 -84 10 -139 4 -55 9 -111 10 -125 2 -14 4 -28 4 -32 1 -12 21
-10 21 1 0 6 33 65 73 133 41 68 100 168 132 223 32 55 73 125 92 155 18 31
33 60 33 66 0 10 -389 15 -395 4z"/>
<path d="M7020 6428 c-19 -5 -52 -14 -72 -19 l-38 -10 5 -77 c3 -42 7 -111 10
-152 2 -41 8 -136 11 -210 4 -74 8 -148 9 -165 1 -16 3 -44 4 -61 l1 -31 91
36 91 36 -6 115 c-4 63 -9 131 -11 150 -4 37 -11 136 -20 285 -9 127 -5 123
-75 103z"/>
<path d="M7531 6373 c-12 -21 -32 -56 -46 -78 -14 -22 -31 -51 -38 -65 -6 -14
-43 -77 -81 -140 -127 -211 -159 -270 -153 -276 3 -3 33 7 68 22 85 36 188 62
278 70 l73 7 -6 46 c-7 55 -25 175 -31 212 -3 14 -7 41 -9 60 -5 35 -14 91
-22 144 -7 42 -10 42 -33 -2z"/>
<path d="M8129 6367 c-9 -7 -42 -61 -74 -122 -32 -60 -71 -133 -86 -161 -16
-28 -29 -57 -29 -63 0 -11 33 4 90 40 25 16 186 112 267 159 144 83 242 144
239 147 -2 2 -91 6 -197 8 -142 3 -198 1 -210 -8z"/>
<path d="M8647 6359 c-12 -7 -97 -168 -97 -184 0 -2 -20 -47 -45 -100 -25 -54
-44 -99 -43 -101 9 -8 87 -21 125 -20 l43 1 80 174 c44 96 80 180 80 187 0 10
-31 23 -116 49 -5 1 -18 -1 -27 -6z"/>
<path d="M8540 6319 c-14 -10 -28 -19 -31 -19 -4 0 -36 -18 -70 -39 -61 -38
-215 -129 -392 -233 -44 -25 -86 -53 -94 -61 -18 -18 -8 -17 221 14 50 6 122
9 161 5 74 -7 91 0 108 44 3 8 35 79 70 157 36 79 62 145 59 147 -4 2 -19 -4
-32 -15z"/>
<path d="M1640 6197 c-29 -56 -65 -124 -80 -152 -86 -157 -201 -387 -197 -392
3 -2 45 19 93 49 49 29 96 58 106 63 40 23 203 119 326 193 l132 79 -77 64
c-98 81 -225 183 -239 192 -6 3 -32 -36 -64 -96z"/>
<path d="M1845 6234 c143 -131 190 -164 231 -164 32 0 228 46 284 66 8 3 -100
34 -240 69 -140 35 -273 68 -295 73 l-40 10 60 -54z"/>
<path d="M1494 6177 c-72 -51 -143 -101 -158 -112 l-26 -20 2 -197 3 -197 68
132 c38 73 82 157 99 187 62 115 150 291 146 295 -2 2 -62 -38 -134 -88z"/>
<path d="M5070 6048 c-39 -62 -161 -251 -271 -420 -109 -169 -199 -309 -199
-312 0 -4 59 14 322 103 130 43 189 68 192 79 3 9 8 73 11 142 4 69 8 143 10
165 8 93 17 355 12 355 -3 0 -37 -51 -77 -112z"/>
<path d="M2290 6078 c-85 -22 -161 -40 -167 -40 -28 -2 -8 -21 90 -85 284
-185 362 -233 380 -233 11 0 72 26 135 57 l115 57 -24 18 c-13 10 -91 68 -174
129 -82 61 -161 117 -175 124 -23 12 -44 8 -180 -27z"/>
<path d="M3073 5937 l-171 -112 185 -190 c250 -257 433 -442 433 -439 0 2 -6
23 -14 46 -8 24 -37 115 -64 203 -28 88 -77 241 -108 340 -31 99 -62 199 -68
223 -6 23 -13 42 -16 42 -3 0 -82 -51 -177 -113z"/>
<path d="M1219 6026 c-3 -3 -18 -7 -35 -10 -42 -8 -257 -64 -287 -75 -21 -8
-156 -154 -243 -264 l-31 -39 4 -122 c3 -66 7 -123 10 -126 2 -3 34 27 70 65
36 39 97 104 136 145 38 41 134 143 213 226 155 163 191 204 176 204 -5 0 -11
-2 -13 -4z"/>
<path d="M1183 5913 c-44 -49 -93 -101 -108 -118 -16 -16 -92 -97 -169 -179
-229 -240 -238 -250 -252 -271 -16 -25 -24 -68 -15 -83 4 -7 53 14 136 60 72
39 168 91 215 117 47 25 127 69 177 96 51 28 97 59 103 71 14 26 18 386 4 391
-5 2 -46 -36 -91 -84z"/>
<path d="M8187 5944 c-1 -1 -31 -5 -67 -9 -36 -3 -82 -8 -102 -11 -99 -11
-126 -14 -158 -19 -19 -2 -53 -7 -75 -9 -124 -14 -152 -18 -175 -21 -14 -2
-52 -6 -84 -9 -33 -3 -61 -8 -64 -10 -2 -3 22 -40 55 -83 69 -92 40 -86 289
-58 35 4 185 24 224 30 14 2 52 6 85 10 33 3 69 8 80 10 11 2 37 4 58 4 l39 1
-6 53 c-3 28 -8 61 -10 72 -3 11 -5 28 -5 38 -1 14 -9 17 -41 15 -22 -1 -42
-3 -43 -4z"/>
<path d="M8314 5894 c13 -101 17 -129 24 -135 6 -4 132 -32 211 -45 14 -3 34
-7 43 -10 10 -3 30 -7 45 -10 16 -2 57 -11 93 -19 75 -17 393 -85 430 -92 14
-2 65 -13 114 -24 49 -11 93 -16 97 -12 7 7 15 65 24 177 2 26 7 51 10 55 4 8
-15 13 -100 27 -11 1 -38 6 -60 9 -22 4 -53 8 -70 10 -16 2 -43 6 -60 9 -16 3
-95 15 -175 26 -80 11 -156 22 -170 25 -14 2 -45 7 -70 10 -25 3 -58 8 -75 11
-16 3 -75 12 -130 20 -55 8 -120 17 -144 21 l-44 6 7 -59z"/>
<path d="M7160 5748 c-124 -50 -238 -96 -255 -103 -16 -7 -124 -50 -240 -95
-115 -46 -211 -84 -213 -86 -9 -6 85 -112 103 -116 11 -2 103 25 205 60 102
35 210 72 240 82 30 10 127 44 215 75 88 32 195 69 238 83 42 15 77 30 77 34
0 20 -112 158 -128 157 -9 0 -118 -41 -242 -91z"/>
<path d="M2741 5746 c-111 -57 -132 -75 -126 -109 3 -12 11 -53 19 -92 8 -38
24 -122 36 -185 l22 -115 179 0 c98 0 179 2 179 5 0 26 -184 550 -193 549 -7
0 -59 -24 -116 -53z"/>
<path d="M9439 5759 c0 -13 -2 -33 -4 -44 -4 -21 -17 -137 -19 -169 -1 -17 42
-35 274 -123 336 -126 411 -153 421 -153 8 0 107 161 112 181 2 11 3 11 -438
190 -176 72 -326 133 -332 136 -8 3 -13 -4 -14 -18z"/>
<path d="M2995 5534 c70 -213 95 -277 113 -288 7 -4 161 -32 287 -52 22 -3 42
-7 45 -9 3 -2 11 -1 17 3 6 4 -102 123 -263 287 l-273 280 74 -221z"/>
<path d="M8270 5736 c-3 -2 -34 -7 -70 -10 -36 -3 -74 -8 -85 -10 -11 -2 -50
-7 -87 -10 -37 -4 -77 -9 -90 -11 -13 -2 -88 -11 -168 -20 -80 -9 -151 -18
-157 -20 -14 -5 -7 -22 74 -192 l49 -102 79 51 c172 112 460 301 464 304 1 1
1 8 -1 14 -2 6 -6 9 -8 6z"/>
<path d="M8406 5701 c-4 -5 754 -452 825 -487 3 -2 18 27 34 64 16 37 44 100
62 140 35 76 35 92 3 92 -11 0 -59 9 -107 20 -48 11 -122 27 -163 36 -41 9
-102 22 -135 29 -33 8 -148 32 -255 55 -107 22 -210 44 -227 49 -18 5 -35 6
-37 2z"/>
<path d="M8063 5530 c-128 -85 -235 -157 -237 -160 -3 -4 452 -4 497 -1 11 1
-9 302 -21 311 -4 3 -112 -64 -239 -150z"/>
<path d="M8344 5652 c3 -15 8 -63 11 -107 14 -199 15 -202 85 -210 56 -7 117
-15 150 -20 37 -6 192 -34 215 -39 161 -32 315 -50 294 -32 -4 3 -464 272
-529 308 -19 11 -71 41 -115 67 -111 66 -118 68 -111 33z"/>
<path d="M7358 5576 c-98 -33 -178 -64 -178 -67 0 -4 35 -16 78 -27 106 -28
393 -109 415 -117 9 -4 17 -5 17 -1 0 21 -122 256 -137 264 -13 7 -61 -5 -195
-52z"/>
<path d="M577 5623 c-2 -4 -8 -30 -11 -56 -4 -27 -9 -56 -11 -65 -1 -10 -6
-40 -10 -68 -6 -51 -6 -52 23 -62 l30 -10 -5 131 c-5 130 -6 146 -16 130z"/>
<path d="M446 5593 c-19 -70 -26 -134 -16 -153 21 -40 29 -19 28 75 -1 52 -2
95 -4 95 -1 0 -5 -8 -8 -17z"/>
<path d="M4017 5423 c-41 -81 -120 -238 -176 -347 -55 -109 -98 -202 -96 -206
4 -6 37 -13 102 -22 5 -1 23 -5 41 -9 27 -6 35 -3 47 14 10 18 74 274 101 407
2 14 19 87 35 163 17 76 29 141 26 143 -3 3 -39 -61 -80 -143z"/>
<path d="M9391 5468 c-5 -13 -23 -54 -41 -93 -48 -104 -70 -156 -70 -165 0 -5
10 -7 23 -5 21 3 69 7 297 21 95 6 111 7 295 19 55 4 104 9 109 12 6 4 -581
231 -602 233 -1 0 -6 -10 -11 -22z"/>
<path d="M6912 5346 c-100 -73 -188 -138 -194 -144 -18 -18 12 -15 153 13 68
14 138 28 154 31 17 3 73 16 125 28 52 13 113 27 135 31 22 5 42 9 45 10 16 5
195 23 245 25 18 1 19 1 3 11 -26 15 -438 129 -462 128 -12 0 -103 -60 -204
-133z"/>
<path d="M5083 5386 c-32 -34 -130 -138 -219 -231 -435 -459 -424 -447 -424
-468 0 -28 42 -167 50 -167 6 0 147 147 264 275 27 29 210 225 289 309 22 23
82 88 135 145 54 57 103 110 110 118 11 11 10 14 -5 20 -10 3 -46 18 -80 34
l-61 27 -59 -62z"/>
<path d="M6344 5399 c-32 -23 -60 -42 -61 -43 -6 -5 86 -90 104 -97 21 -8 118
42 118 60 0 13 -85 121 -95 121 -4 0 -33 -19 -66 -41z"/>
<path d="M6765 5370 c-159 -57 -190 -71 -187 -87 1 -10 8 -40 15 -66 l12 -49
115 84 c63 46 133 95 155 111 58 40 102 77 90 76 -5 0 -95 -31 -200 -69z"/>
<path d="M10233 5388 c-17 -29 -42 -73 -56 -98 l-26 -44 47 -26 c26 -14 74
-41 107 -60 33 -18 78 -43 100 -55 22 -13 72 -41 110 -62 39 -22 93 -52 120
-68 28 -15 79 -45 115 -65 36 -21 83 -48 105 -60 22 -12 57 -31 77 -43 21 -11
39 -19 41 -16 20 26 83 105 87 109 14 13 50 64 50 70 0 7 -79 52 -315 180 -33
18 -64 36 -70 40 -5 4 -55 31 -110 60 -55 29 -107 59 -116 66 -8 8 -19 14 -22
14 -4 0 -51 25 -105 55 -54 30 -101 55 -103 55 -3 0 -19 -24 -36 -52z"/>
<path d="M4905 5371 c-77 -26 -170 -55 -205 -65 -108 -30 -150 -68 -164 -151
-4 -22 -25 -114 -47 -204 -21 -90 -38 -166 -36 -168 2 -1 61 58 132 132 70 75
150 159 177 188 28 29 86 90 130 137 45 47 99 104 121 127 23 24 39 44 36 47
-2 2 -67 -17 -144 -43z"/>
<path d="M415 5352 c9 -49 17 -56 105 -85 l75 -25 3 30 c5 42 -17 60 -112 91
l-78 26 7 -37z"/>
<path d="M8087 5334 c-2 -2 -33 -4 -70 -5 -36 -1 -64 -5 -62 -10 3 -4 10 -29
15 -56 6 -26 12 -52 14 -58 1 -5 6 -23 10 -40 4 -16 10 -37 13 -45 3 -9 28 33
59 99 30 62 54 114 54 116 0 3 -30 2 -33 -1z"/>
<path d="M8168 5328 c-14 -11 -125 -242 -131 -271 -2 -8 143 -92 147 -85 2 2
37 80 79 173 l76 170 -62 12 c-81 15 -90 15 -109 1z"/>
<path d="M6193 5292 c-29 -20 -51 -41 -50 -47 6 -20 99 -75 123 -73 14 2 39
14 55 28 l30 25 -53 52 -53 52 -52 -37z"/>
<path d="M7877 5324 c-2 -2 -59 -6 -127 -9 -68 -4 -130 -9 -137 -13 -7 -4 60
-48 168 -111 99 -57 183 -101 186 -98 3 3 -7 55 -23 116 -20 82 -32 111 -45
114 -10 3 -20 3 -22 1z"/>
<path d="M7410 5289 c-47 -10 -105 -20 -130 -24 -24 -3 -47 -8 -49 -11 -3 -2
6 -69 18 -147 13 -78 26 -153 28 -167 7 -44 15 -62 23 -54 22 25 211 407 204
413 -5 4 -47 -1 -94 -10z"/>
<path d="M6478 5250 c-63 -39 -69 -53 -51 -114 8 -28 17 -54 19 -58 7 -10 94
44 109 67 11 16 11 29 0 68 -7 27 -16 52 -21 57 -5 5 -28 -3 -56 -20z"/>
<path d="M7570 5258 c0 -3 36 -195 71 -378 11 -58 23 -125 26 -150 3 -25 11
-61 17 -82 l11 -36 120 179 c66 98 129 194 141 212 l21 32 -189 110 c-168 98
-218 124 -218 113z"/>
<path d="M7149 5236 c-2 -2 -22 -6 -44 -10 -84 -12 -100 -20 -98 -52 4 -49
106 -609 113 -616 3 -5 26 31 50 78 25 47 55 104 67 126 11 23 20 51 18 62 -2
12 -6 39 -9 61 -8 61 -16 110 -37 232 -10 61 -19 114 -19 117 0 7 -34 8 -41 2z"/>
<path d="M7527 5233 c-9 -15 -135 -254 -237 -448 -29 -55 -75 -142 -102 -193
-27 -51 -48 -97 -46 -101 2 -4 86 7 188 26 102 18 201 35 220 37 46 6 78 13
90 21 13 8 13 49 1 95 -6 19 -12 53 -15 75 -4 22 -8 51 -11 65 -10 54 -16 87
-25 140 -6 30 -12 66 -15 80 -3 14 -7 36 -10 50 -3 14 -7 36 -10 50 -3 14 -8
41 -12 60 -4 19 -6 38 -5 43 1 4 0 7 -2 7 -3 0 -7 -3 -9 -7z"/>
<path d="M2710 5207 c0 -13 48 -194 69 -262 5 -16 24 -84 42 -150 17 -66 35
-124 39 -128 4 -5 68 3 141 17 74 14 147 27 163 30 16 3 30 7 32 9 6 5 -109
468 -119 485 -12 18 -367 17 -367 -1z"/>
<path d="M10007 5214 c-1 -1 -60 -5 -130 -9 -71 -3 -145 -8 -165 -10 -20 -2
-89 -6 -152 -10 -63 -3 -135 -8 -159 -11 -45 -5 -65 -13 -46 -20 6 -3 147 -65
314 -139 168 -75 308 -132 311 -128 9 10 110 306 110 321 0 9 -73 14 -83 6z"/>
<path d="M4252 5012 l-243 -197 133 -32 c130 -32 146 -35 218 -48 l36 -7 18
76 c10 42 18 78 17 81 0 2 5 19 10 37 6 18 12 44 15 58 3 14 16 69 30 122 27
108 27 108 17 108 -5 -1 -117 -90 -251 -198z"/>
<path d="M6039 5184 c-19 -14 -41 -29 -49 -34 -12 -7 -9 -13 14 -32 40 -32 68
-47 86 -48 8 0 42 15 74 34 l59 33 -54 37 c-64 43 -84 44 -130 10z"/>
<path d="M3250 5137 c304 -170 405 -225 408 -223 2 3 -67 132 -106 195 -12 19
-27 36 -34 37 -7 1 -31 5 -53 8 -152 24 -227 35 -275 41 l-55 6 115 -64z"/>
<path d="M10170 5173 c5 -10 53 -128 106 -263 53 -135 97 -246 98 -247 0 0 35
5 76 13 110 21 111 21 160 33 25 5 61 13 80 16 62 11 213 45 217 49 2 2 -33
24 -79 50 -46 25 -94 52 -108 61 -30 17 -484 272 -520 292 -34 18 -42 16 -30
-4z"/>
<path d="M6332 5160 c-18 -11 -35 -27 -39 -36 -5 -15 16 -134 24 -134 14 0 64
33 76 50 13 18 13 29 0 80 -9 33 -18 60 -22 60 -3 0 -21 -9 -39 -20z"/>
<path d="M10072 5029 c-28 -82 -49 -156 -46 -164 7 -17 282 -181 290 -173 3 3
-181 476 -188 483 -2 3 -27 -63 -56 -146z"/>
<path d="M3130 5150 c0 -6 22 -90 49 -188 26 -97 51 -190 55 -205 5 -22 11
-27 24 -22 9 4 22 8 27 9 39 7 375 111 375 116 0 3 -17 14 -37 25 -21 11 -67
36 -102 57 -34 21 -64 38 -66 38 -2 0 -74 41 -160 90 -86 50 -159 90 -161 90
-2 0 -4 -5 -4 -10z"/>
<path d="M5888 5076 c-26 -17 -44 -36 -40 -42 4 -6 23 -22 42 -36 27 -20 41
-24 62 -18 33 10 98 49 97 58 0 8 -98 72 -108 71 -3 0 -27 -15 -53 -33z"/>
<path d="M6185 5069 c-27 -17 -54 -35 -59 -40 -10 -9 24 -139 37 -139 13 0
106 63 110 75 5 14 -23 135 -31 135 -4 0 -29 -14 -57 -31z"/>
<path d="M5753 4986 c-45 -29 -49 -47 -17 -73 37 -29 68 -33 101 -13 29 17 59
48 52 53 -72 56 -94 61 -136 33z"/>
<path d="M7672 4512 l-333 -497 48 -45 c27 -25 60 -56 75 -69 l27 -23 57 88
c60 94 270 423 486 761 70 110 128 204 128 207 0 6 -135 76 -147 76 -5 0 -158
-224 -341 -498z"/>
<path d="M6022 4968 c-70 -40 -76 -53 -56 -128 10 -33 21 -60 26 -60 18 0 117
73 121 89 4 17 -20 112 -31 123 -4 3 -31 -8 -60 -24z"/>
<path d="M11088 4875 c-61 -74 -86 -112 -77 -118 4 -3 194 -165 239 -204 214
-184 348 -293 363 -293 18 0 237 69 237 74 0 2 -141 127 -312 277 -172 151
-330 289 -350 307 l-37 33 -63 -76z"/>
<path d="M5636 4875 l-27 -35 33 -30 c18 -17 35 -30 39 -30 10 0 69 59 69 69
0 10 -65 61 -78 61 -5 0 -22 -16 -36 -35z"/>
<path d="M5858 4867 c-42 -25 -44 -33 -23 -103 8 -27 15 -50 15 -51 0 -2 0 -8
0 -13 0 -7 8 -7 23 1 36 19 67 51 67 70 0 40 -22 119 -33 119 -7 -1 -29 -11
-49 -23z"/>
<path d="M3723 4813 c-11 -11 -35 -46 -54 -77 -51 -86 -62 -105 -103 -168 -20
-32 -33 -59 -29 -59 4 -1 92 -2 196 -3 160 -1 187 1 188 14 1 29 9 145 13 185
7 72 -15 94 -109 108 -16 3 -42 8 -57 12 -19 5 -31 2 -45 -12z"/>
<path d="M3472 4759 c-107 -32 -195 -59 -197 -61 -4 -4 191 -167 208 -174 10
-3 20 5 29 23 8 15 47 81 87 146 40 65 72 119 70 121 -2 1 -91 -23 -197 -55z"/>
<path d="M5552 4770 c-12 -16 -22 -32 -22 -34 0 -8 57 -36 73 -36 8 0 22 12
32 26 16 25 16 26 -12 50 -36 31 -45 30 -71 -6z"/>
<path d="M5748 4773 c-14 -16 -28 -37 -32 -47 -7 -20 20 -116 33 -116 21 0 61
55 61 83 0 34 -20 107 -30 107 -3 0 -18 -12 -32 -27z"/>
<path d="M3966 4652 c1 -102 4 -126 15 -124 13 3 98 41 282 126 42 20 77 38
77 40 0 3 -26 10 -57 17 -71 15 -56 12 -186 43 -60 14 -114 26 -120 26 -9 0
-12 -37 -11 -128z"/>
<path d="M10825 4714 c-60 -13 -121 -25 -135 -28 -14 -2 -56 -11 -95 -19 -38
-9 -86 -18 -106 -21 -85 -13 -84 -14 261 -208 25 -14 101 -58 169 -97 68 -39
125 -70 127 -68 2 2 0 19 -5 38 -5 19 -19 88 -31 154 -12 66 -28 152 -36 192
-8 40 -14 75 -14 78 0 7 -10 6 -135 -21z"/>
<path d="M11005 4689 c2 -11 6 -28 9 -37 3 -9 7 -35 11 -57 3 -22 14 -83 25
-135 11 -52 21 -106 24 -120 3 -14 8 -40 12 -57 l6 -32 227 0 226 0 -35 31
c-55 48 -91 79 -155 133 -33 27 -62 52 -65 55 -3 3 -61 52 -130 110 -69 57
-131 110 -138 117 -18 18 -21 16 -17 -8z"/>
<path d="M5471 4663 c-22 -35 -23 -37 -5 -50 10 -7 24 -13 31 -13 15 0 63 47
63 61 0 7 -52 39 -62 39 -2 0 -14 -17 -27 -37z"/>
<path d="M5646 4674 c-19 -18 -21 -63 -4 -99 l11 -25 24 22 c26 24 28 41 12
87 -12 35 -21 38 -43 15z"/>
<path d="M3130 4668 c-19 -4 -51 -10 -70 -13 -20 -3 -47 -7 -60 -10 -14 -3
-41 -8 -60 -11 -19 -4 -38 -8 -42 -11 -4 -2 45 -50 110 -107 64 -57 155 -138
202 -180 47 -41 87 -75 90 -75 6 0 149 195 156 213 3 8 -41 52 -110 110 -123
104 -125 104 -216 84z"/>
<path d="M4295 4629 c-44 -21 -137 -66 -207 -98 l-127 -59 9 -31 c5 -17 9 -34
9 -36 0 -3 2 -18 5 -33 3 -15 8 -42 11 -61 3 -19 8 -38 11 -43 6 -10 444 213
444 226 0 28 -53 176 -63 175 -7 0 -48 -18 -92 -40z"/>
<path d="M5547 4580 c-28 -33 -34 -48 -31 -77 2 -19 5 -38 8 -40 8 -8 65 27
76 48 12 22 5 95 -10 104 -5 3 -24 -13 -43 -35z"/>
<path d="M5381 4554 c-27 -34 -27 -54 0 -54 29 0 85 60 67 71 -24 15 -46 9
-67 -17z"/>
<path d="M7941 4516 c-18 -25 -30 -50 -26 -55 6 -10 191 -151 198 -151 6 0
-119 230 -131 242 -6 6 -21 -6 -41 -36z"/>
<path d="M7619 4526 c-2 -2 -29 -7 -59 -10 -30 -4 -91 -13 -135 -21 -44 -8
-96 -17 -115 -20 -19 -3 -46 -8 -60 -10 -14 -3 -43 -7 -65 -10 -58 -7 -65 -23
-60 -129 2 -50 7 -149 10 -221 11 -239 16 -299 28 -284 30 36 475 709 469 709
-5 0 -11 -2 -13 -4z"/>
<path d="M5422 4440 c-17 -33 -29 -60 -26 -60 3 0 21 7 40 16 34 16 47 41 41
78 -7 37 -24 27 -55 -34z"/>
<path d="M3512 4459 c-10 -4 -38 -33 -62 -65 -25 -33 -47 -61 -50 -64 -10 -10
-50 -69 -50 -74 0 -3 139 -5 308 -5 l309 0 -18 97 c-11 53 -20 101 -22 107 -4
11 -385 15 -415 4z"/>
<path d="M5325 4460 c-23 -9 -39 -26 -48 -53 -5 -12 6 -8 33 15 22 18 40 36
40 41 0 8 1 8 -25 -3z"/>
<path d="M7820 4327 c-35 -56 -86 -135 -112 -176 -26 -41 -46 -76 -44 -78 2
-2 55 14 117 36 281 97 354 123 357 125 2 3 -218 174 -243 188 -6 4 -39 -39
-75 -95z"/>
<path d="M5308 4341 c-25 -36 -27 -51 -6 -51 7 0 58 74 58 85 0 18 -29 -2 -52
-34z"/>
<path d="M6885 4068 c-104 -165 -204 -322 -221 -349 -31 -46 -34 -62 -11 -54
7 2 26 6 42 9 17 2 98 18 180 36 83 17 164 34 180 37 62 12 61 5 40 388 -2 33
-4 94 -5 137 -2 42 -6 81 -9 86 -3 5 -91 -125 -196 -290z"/>
<path d="M11753 4261 c-56 -20 -108 -42 -114 -48 -10 -10 -9 -35 1 -115 7 -57
14 -110 15 -118 2 -8 6 -44 10 -80 4 -36 9 -74 10 -85 2 -11 6 -42 10 -70 3
-27 8 -60 10 -71 2 -12 7 -48 10 -80 4 -33 9 -67 11 -78 2 -10 6 -44 9 -75 7
-57 23 -131 29 -131 2 0 48 -9 102 -20 55 -11 112 -23 128 -26 16 -3 34 -8 39
-11 11 -6 7 43 -13 172 -6 39 -13 81 -15 95 -2 14 -13 86 -24 160 -12 74 -24
153 -27 175 -4 22 -8 47 -9 56 -2 9 -6 40 -10 70 -4 30 -11 77 -16 104 -5 28
-12 73 -16 100 -3 28 -7 57 -9 65 -1 8 -3 23 -3 33 -1 22 -7 21 -128 -22z"/>
<path d="M3319 4202 c0 -4 -2 -16 -4 -27 -2 -11 -7 -51 -10 -89 -4 -38 -8 -78
-10 -87 -2 -10 -6 -46 -10 -81 -3 -35 -8 -74 -10 -88 -2 -14 -6 -52 -10 -85
-3 -33 -8 -71 -10 -85 -2 -14 -6 -52 -10 -85 -3 -33 -8 -77 -11 -99 -4 -37 -4
-38 23 -33 57 11 208 60 220 71 12 11 28 76 39 161 3 22 9 56 14 75 5 19 14
71 20 115 7 44 14 89 16 100 2 10 6 35 9 55 3 20 8 47 10 60 3 14 8 48 11 77
l7 51 -142 0 c-77 0 -141 -3 -142 -6z"/>
<path d="M3666 4188 c14 -47 184 -490 194 -506 6 -11 9 74 10 256 l0 272 -106
0 c-105 0 -105 0 -98 -22z"/>
<path d="M11100 4205 c0 -1 16 -78 36 -171 19 -93 53 -253 74 -356 49 -235 51
-241 60 -231 7 7 157 385 240 603 18 47 36 90 40 95 4 6 10 22 14 38 l6 27
-235 -1 c-129 -1 -235 -3 -235 -4z"/>
<path d="M8095 4179 c-27 -10 -135 -49 -240 -85 -104 -37 -192 -68 -194 -70
-8 -8 116 -241 212 -399 80 -133 199 -309 282 -420 l67 -90 -8 160 c-4 88 -8
178 -9 200 -2 22 -6 99 -9 170 -4 72 -9 155 -11 185 -5 68 -17 305 -18 343 -1
31 -5 32 -72 6z"/>
<path d="M8207 4173 c-2 -4 -3 -15 -2 -23 1 -8 5 -76 9 -150 4 -74 8 -157 10
-185 3 -27 7 -117 11 -200 4 -82 8 -166 10 -185 2 -19 6 -102 10 -185 4 -82
10 -153 14 -157 8 -9 521 282 521 294 0 7 -549 769 -570 791 -4 5 -10 5 -13 0z"/>
<path d="M3620 4058 c-7 -40 -14 -80 -15 -88 -1 -8 -6 -35 -10 -60 -4 -25 -9
-54 -11 -65 -2 -10 -6 -35 -9 -55 -3 -20 -8 -47 -10 -60 -13 -66 -36 -222 -33
-225 3 -2 66 5 168 20 14 2 55 6 93 10 37 4 67 11 67 17 0 18 -214 578 -221
578 -4 0 -13 -33 -19 -72z"/>
<path d="M11536 4008 c-27 -68 -54 -136 -61 -153 -7 -16 -36 -91 -65 -165 -29
-74 -58 -148 -65 -165 -34 -82 -57 -146 -54 -150 4 -3 36 -8 124 -19 22 -3 59
-8 83 -11 23 -3 61 -7 85 -10 23 -3 59 -8 80 -11 42 -7 41 -12 27 91 -5 39
-11 90 -15 115 -8 69 -26 202 -30 230 -4 27 -8 58 -26 195 -15 114 -16 125
-18 153 -2 44 -19 20 -65 -100z"/>
<path d="M7597 3978 c-8 -13 -33 -53 -57 -91 -23 -37 -42 -79 -42 -94 0 -48
134 -294 275 -503 168 -250 311 -458 325 -472 14 -14 120 199 114 226 -4 21
-33 63 -202 301 -100 141 -181 272 -260 420 -57 108 -131 235 -136 235 -2 0
-10 -10 -17 -22z"/>
<path d="M7219 3838 c-84 -126 -354 -528 -536 -797 -35 -52 -62 -97 -61 -101
2 -4 34 -41 71 -83 l69 -76 107 162 c59 89 138 209 176 266 37 58 148 225 246
373 l177 268 -70 62 c-38 35 -73 64 -77 66 -4 1 -50 -62 -102 -140z"/>
<path d="M7079 3715 c-3 -2 -75 -18 -160 -36 -84 -17 -158 -32 -164 -33 -5 -2
-38 -9 -73 -16 -34 -7 -65 -17 -68 -21 -4 -7 -8 -530 -5 -589 1 -13 3 -13 15
0 22 23 467 692 463 696 -2 2 -6 2 -8 -1z"/>
<path d="M6524 3490 c-22 -30 -119 -161 -214 -290 -95 -129 -189 -257 -208
-284 l-36 -48 40 6 c21 3 50 8 64 10 14 3 108 19 210 36 102 18 186 33 188 34
1 2 1 135 0 297 l-3 295 -41 -56z"/>
<path d="M3849 3506 c-2 -2 -33 -7 -69 -11 -36 -4 -73 -9 -84 -11 -10 -2 -43
-6 -74 -10 -83 -10 -87 -10 -85 -18 1 -3 4 -25 8 -49 4 -23 9 -51 11 -62 2
-11 6 -31 9 -45 7 -35 12 -61 19 -90 3 -14 8 -36 10 -50 10 -57 38 -185 42
-189 6 -7 4 -12 118 268 94 230 113 284 95 267z"/>
<path d="M3860 3397 c-18 -45 -41 -100 -50 -122 -10 -22 -28 -65 -40 -95 -12
-30 -28 -68 -35 -85 -34 -79 -75 -185 -75 -193 0 -6 37 3 83 20 45 16 141 50
212 75 72 25 135 48 142 52 8 4 -20 70 -94 216 -58 116 -106 211 -107 212 -2
2 -18 -34 -36 -80z"/>
<path d="M3352 3431 c-95 -28 -122 -39 -118 -51 2 -8 31 -105 64 -215 33 -110
72 -239 86 -286 l26 -86 95 49 c106 55 103 49 81 155 -8 37 -17 84 -20 103 -7
44 -13 73 -26 130 -5 25 -12 56 -14 70 -14 70 -17 87 -23 115 -4 17 -7 34 -7
39 -1 17 -20 14 -144 -23z"/>
<path d="M8768 3316 c-141 -75 -413 -235 -416 -244 -2 -7 30 -9 95 -7 101 4
540 17 828 24 34 1 37 3 25 15 -8 7 -117 66 -242 129 l-227 117 -63 -34z"/>
<path d="M11283 3314 c13 -46 16 -62 22 -104 4 -25 13 -74 20 -110 7 -36 16
-85 20 -110 3 -25 10 -61 15 -80 5 -19 11 -51 14 -70 3 -19 9 -48 12 -65 4
-16 7 -36 7 -43 0 -7 5 -11 11 -9 12 4 290 546 283 553 -5 5 -28 10 -97 18
-96 12 -136 18 -160 22 -14 2 -54 7 -89 10 -59 6 -63 5 -58 -12z"/>
<path d="M11219 3297 c-29 -24 -142 -124 -198 -174 -20 -18 -64 -56 -98 -85
-34 -29 -62 -55 -62 -58 -1 -3 23 -18 51 -34 29 -16 136 -80 239 -141 102 -62
193 -114 201 -117 12 -5 12 2 1 56 -7 33 -17 86 -22 116 -5 30 -22 118 -36
195 -15 77 -29 154 -32 170 -2 17 -8 45 -11 62 l-7 33 -26 -23z"/>
<path d="M11720 3238 c-11 -18 -84 -160 -162 -314 l-142 -282 88 -117 c73 -97
90 -115 101 -104 7 8 47 82 90 164 43 83 81 155 85 160 4 6 37 69 75 140 101
195 157 299 167 312 12 16 6 18 -108 42 -179 37 -171 37 -194 -1z"/>
<path d="M9318 3055 c-2 -2 -118 -6 -258 -10 -140 -3 -304 -8 -365 -10 -60 -2
-163 -4 -227 -4 -72 -1 -118 -5 -118 -11 0 -6 51 -34 113 -64 61 -30 225 -109
362 -176 138 -67 300 -146 360 -175 61 -29 226 -110 368 -179 142 -69 262
-126 268 -126 11 0 12 13 0 26 -5 5 -20 29 -33 54 -14 25 -92 160 -173 300
-82 140 -157 270 -167 290 -35 65 -52 80 -90 84 -20 2 -38 2 -40 1z"/>
<path d="M9464 3016 c8 -14 25 -41 35 -60 72 -128 366 -634 375 -645 8 -11 12
-8 17 15 4 16 16 70 27 119 12 50 23 101 26 115 2 14 19 88 37 165 17 77 32
147 33 155 1 10 -64 31 -254 81 -140 37 -268 70 -284 73 -28 6 -28 6 -12 -18z"/>
<path d="M4070 2998 c-41 -16 -301 -108 -352 -124 l-48 -15 107 -147 c59 -81
122 -169 142 -197 19 -27 44 -62 56 -76 l21 -26 39 201 c21 111 40 206 41 213
1 6 7 35 13 65 27 125 27 125 -19 106z"/>
<path d="M8194 2894 c-57 -111 -58 -116 -39 -127 211 -128 781 -425 1080 -565
263 -123 296 -138 469 -211 177 -76 192 -81 189 -65 -1 6 -5 67 -9 135 -3 68
-11 135 -18 149 -11 26 -96 71 -502 267 -237 115 -556 270 -848 412 -137 66
-252 121 -256 121 -4 0 -34 -52 -66 -116z"/>
<path d="M4140 2972 c0 -10 -14 -87 -30 -172 -17 -85 -33 -171 -36 -190 -3
-19 -7 -37 -9 -40 -2 -3 -6 -26 -10 -50 -3 -25 -10 -60 -15 -78 -6 -23 -5 -30
3 -25 12 8 285 220 329 256 l26 22 -116 142 c-119 145 -142 166 -142 135z"/>
<path d="M10625 2950 c-38 -4 -99 -11 -135 -15 -36 -3 -76 -8 -90 -10 -14 -2
-56 -6 -95 -10 -127 -11 -240 -26 -246 -33 -4 -4 -30 -113 -58 -242 -29 -129
-59 -261 -66 -293 l-13 -57 22 17 c12 10 192 157 399 326 322 263 399 334 359
326 -4 -1 -38 -5 -77 -9z"/>
<path d="M10679 2859 c-152 -124 -147 -119 -244 -199 -44 -36 -88 -72 -97 -80
-9 -8 -96 -78 -192 -155 -96 -77 -177 -145 -180 -152 -3 -8 108 -11 440 -11
l445 1 -5 113 c-3 63 -8 194 -12 292 -5 154 -10 259 -13 285 -2 17 -25 2 -142
-94z"/>
<path d="M10866 2862 c1 -37 5 -150 9 -252 10 -274 12 -320 16 -324 5 -5 453
340 456 351 2 4 -16 19 -40 32 -23 13 -123 72 -222 131 -99 59 -190 112 -201
118 -21 11 -21 10 -18 -56z"/>
<path d="M6425 2894 c-38 -7 -86 -16 -105 -19 -20 -3 -47 -8 -60 -10 -14 -3
-69 -13 -124 -22 l-98 -16 6 -121 c13 -228 22 -346 30 -353 3 -3 76 81 221
256 11 13 25 29 30 35 6 6 30 36 55 66 25 30 47 57 50 60 12 12 97 116 104
128 9 15 -16 15 -109 -4z"/>
<path d="M6570 2884 c-14 -16 -90 -108 -170 -204 -79 -96 -149 -180 -155 -186
-48 -52 -171 -210 -175 -227 -5 -19 49 -178 60 -176 3 1 32 31 65 68 54 60
135 147 350 380 39 41 98 105 132 140 l61 65 -18 26 c-11 14 -43 51 -72 84
l-53 58 -25 -28z"/>
<path d="M3515 2805 c-44 -24 -79 -49 -77 -55 2 -10 216 -320 301 -437 25 -34
46 -34 119 1 37 18 77 36 90 40 12 4 22 11 22 16 0 14 -330 470 -340 470 -5 0
-14 2 -22 4 -7 3 -49 -15 -93 -39z"/>
<path d="M5790 2729 c-113 -48 -209 -90 -215 -92 -8 -3 14 -21 136 -109 256
-186 315 -228 322 -228 4 0 5 21 2 48 -3 26 -7 76 -9 112 -14 200 -19 289 -20
322 -1 21 -3 38 -6 37 -3 -1 -97 -41 -210 -90z"/>
<path d="M4465 2577 c3 -56 8 -118 10 -137 2 -19 6 -71 10 -114 3 -44 9 -84
12 -89 3 -5 41 72 83 172 43 100 80 185 84 188 13 14 4 23 -31 32 -21 6 -69
20 -106 30 l-69 20 7 -102z"/>
<path d="M4345 2603 c-38 -30 -120 -93 -182 -141 -62 -48 -112 -90 -113 -94 0
-4 57 -35 128 -69 70 -34 161 -79 203 -100 l77 -38 -4 37 c-1 20 -5 78 -8 127
-4 50 -8 115 -11 145 -11 133 -16 184 -18 186 -1 1 -33 -23 -72 -53z"/>
<path d="M4750 2611 c0 -3 13 -15 28 -26 15 -10 140 -108 277 -216 138 -109
254 -198 260 -199 8 -2 153 360 171 426 l6 21 -371 0 c-204 0 -371 -2 -371 -6z"/>
<path d="M5446 2385 c-47 -123 -86 -226 -86 -228 0 -2 62 9 139 24 76 16 151
31 167 34 76 13 317 65 320 68 3 2 -402 296 -441 319 -8 5 -39 -61 -99 -217z"/>
<path d="M11235 2499 c-77 -60 -147 -115 -155 -122 -9 -7 -42 -33 -75 -57 -33
-25 -73 -56 -89 -70 l-28 -25 6 -149 c3 -82 8 -151 11 -154 5 -5 64 33 325
212 85 59 197 135 247 169 51 34 93 64 93 67 0 10 -175 233 -185 236 -5 1 -73
-47 -150 -107z"/>
<path d="M4685 2558 c-7 -18 -46 -107 -85 -198 -40 -91 -76 -175 -81 -187 l-8
-22 374 1 c317 0 373 2 368 14 -3 8 -8 14 -12 14 -4 0 -123 92 -266 205 -143
112 -264 205 -268 205 -4 0 -14 -15 -22 -32z"/>
<path d="M3984 2331 c-5 -4 -48 -24 -96 -45 -49 -21 -88 -42 -88 -46 0 -7 88
-57 523 -297 32 -18 62 -33 67 -33 11 0 64 196 56 208 -7 12 -412 212 -437
217 -9 2 -21 0 -25 -4z"/>
<path d="M5967 2243 c-2 -2 -40 -10 -83 -19 -43 -9 -83 -17 -89 -18 -10 -3
-74 -16 -105 -21 -8 -2 -88 -18 -178 -36 l-163 -33 5 -35 c4 -31 21 -122 25
-136 0 -3 1 -14 1 -25 0 -11 6 -20 14 -20 17 0 687 160 695 166 5 4 -61 174
-68 175 -20 4 -51 6 -54 2z"/>
<path d="M9915 2176 c2 -22 7 -93 11 -156 3 -63 8 -117 11 -120 9 -10 913 -5
916 5 2 5 3 78 3 160 l-1 150 -472 1 -473 2 5 -42z"/>
<path d="M4495 2094 c-8 -8 -15 -19 -15 -22 0 -4 -11 -45 -23 -92 l-24 -85
458 0 c454 0 458 0 454 20 -5 23 -25 146 -25 157 0 4 -7 14 -15 22 -14 13 -67
16 -405 16 -338 0 -391 -3 -405 -16z"/>
</g>
</svg>
